<?xml version="1.0" standalone="no"?>
<svg viewBox="0 0 200 200" xmlns="http://www.w3.org/2000/svg">

  <path fill="#FF0066" d="M45.2,-77C59.3,-70,72.2,-59.6,79.2,-46.1C86.2,-32.7,87.4,-16.4,86,-0.8C84.6,14.7,80.5,29.4,73.4,42.8C66.4,56.1,56.3,68,43.5,76.5C30.8,85,15.4,90,0,89.9C-15.3,89.9,-30.7,84.8,-43.8,76.5C-56.9,68.3,-67.7,56.8,-75.7,43.5C-83.7,30.2,-88.8,15.1,-89.3,-0.3C-89.8,-15.7,-85.6,-31.4,-78.3,-45.7C-70.9,-60.1,-60.3,-73.1,-46.7,-80.4C-33.2,-87.7,-16.6,-89.2,-0.5,-88.3C15.5,-87.3,31,-83.9,45.2,-77Z" transform="translate(100 100)" />

</svg>
