<?xml version="1.0" standalone="no"?>
<!DOCTYPE svg PUBLIC "-//W3C//DTD SVG 20010904//EN"
 "http://www.w3.org/TR/2001/REC-SVG-20010904/DTD/svg10.dtd">
<svg version="1.0" xmlns="http://www.w3.org/2000/svg"
 width="1183.000000pt" height="1280.000000pt" viewBox="0 0 1183.000000 1280.000000"
 preserveAspectRatio="xMidYMid meet">
<metadata>
Created by potrace 1.15, written by Peter Selinger 2001-2017
</metadata>
<g transform="translate(0.000000,1280.000000) scale(0.100000,-0.100000)"
fill="#000000" stroke="none">

<path d="M5385 12794 c-1454 -48 -2621 -207 -3620 -494 -1227 -352 -1863 -854
-1751 -1380 14 -66 16 -189 16 -981 l0 -907 2430 -2422 2430 -2423 2 -1949 3
-1949 125 -55 c382 -168 621 -228 910 -228 297 0 541 64 893 231 l117 56 0
1947 0 1947 2430 2422 2430 2423 3 926 c2 686 7 952 16 1024 11 83 11 107 -2
172 -89 437 -694 835 -1731 1140 -868 256 -1967 420 -3261 486 -205 11 -1241
21 -1440 14z"/>
</g>
</svg>
