<?xml version="1.0" encoding="iso-8859-1"?>
<!-- Uploaded to: SVG Repo, www.svgrepo.com, Generator: SVG Repo Mixer Tools -->
<!DOCTYPE svg PUBLIC "-//W3C//DTD SVG 1.1//EN" "http://www.w3.org/Graphics/SVG/1.1/DTD/svg11.dtd">
<svg version="1.1" id="Capa_1" xmlns="http://www.w3.org/2000/svg" xmlns:xlink="http://www.w3.org/1999/xlink" 
	  viewBox="0 0 50 50"
	 xml:space="preserve">
<g>
	<g>
		<path d="M27 48h-6a1 1 0 0 1-1-.87l-.48-3.64a19.94 19.94 0 0 1-6.16-2.55l-2.9 2.24a1 1 0 0 1-1.32-.09l-4.23-4.24a1 1 0 0 1-.09-1.32l2.24-2.9a19.94 19.94 0 0 1-2.55-6.16L.87 28A1 1 0 0 1 0 27v-6a1 1 0 0 1 .87-1l3.64-.48a19.94 19.94 0 0 1 2.55-6.16l-2.24-2.9a1 1 0 0 1 .09-1.32l4.24-4.23a1 1 0 0 1 1.32-.09l2.9 2.24a19.94 19.94 0 0 1 6.16-2.55L20 .87A1 1 0 0 1 21 0h6a1 1 0 0 1 1 .87l.48 3.64a19.94 19.94 0 0 1 6.16 2.55l2.9-2.24a1 1 0 0 1 1.32.09l4.24 4.24a1 1 0 0 1 .09 1.32l-2.24 2.9a19.94 19.94 0 0 1 2.55 6.16l3.64.48A1 1 0 0 1 48 21v6a1 1 0 0 1-.87 1l-3.64.48a19.94 19.94 0 0 1-2.55 6.16l2.24 2.9a1 1 0 0 1-.09 1.32l-4.24 4.24a1 1 0 0 1-1.32.09l-2.9-2.24a19.94 19.94 0 0 1-6.16 2.55L28 47.13a1 1 0 0 1-1 .87zm-5.12-2h4.24l.46-3.47a1 1 0 0 1 .8-.86 17.81 17.81 0 0 0 6.73-2.78 1 1 0 0 1 1.17 0l2.78 2.14 3-3-2.14-2.78a1 1 0 0 1 0-1.17 17.81 17.81 0 0 0 2.78-6.73 1 1 0 0 1 .86-.8l3.44-.43v-4.24l-3.47-.46a1 1 0 0 1-.86-.8 17.81 17.81 0 0 0-2.78-6.73 1 1 0 0 1 0-1.17l2.14-2.78-3-3-2.75 2.14a1 1 0 0 1-1.17 0 17.81 17.81 0 0 0-6.73-2.78 1 1 0 0 1-.8-.86L26.12 2h-4.24l-.46 3.47a1 1 0 0 1-.8.86 17.81 17.81 0 0 0-6.73 2.78 1 1 0 0 1-1.17 0L9.94 6.94l-3 3 2.14 2.78a1 1 0 0 1 0 1.17 17.81 17.81 0 0 0-2.78 6.73 1 1 0 0 1-.86.8L2 21.88v4.24l3.47.46a1 1 0 0 1 .86.8 17.81 17.81 0 0 0 2.78 6.73 1 1 0 0 1 0 1.17l-2.17 2.78 3 3 2.78-2.14a1 1 0 0 1 1.17 0 17.81 17.81 0 0 0 6.73 2.78 1 1 0 0 1 .8.86zM27 38.67a1 1 0 0 1-1-1v-8.48a1 1 0 0 1 .5-.86 5.17 5.17 0 0 0 1.83-1.83 1 1 0 0 1 .86-.5h8.48a1 1 0 0 1 1 1.21 15 15 0 0 1-11.46 11.44zm1-8.93v6.63A13.08 13.08 0 0 0 36.37 28h-6.63A6.85 6.85 0 0 1 28 29.74zm-7 8.93h-.21A15 15 0 0 1 9.35 27.21a1 1 0 0 1 1-1.21h8.48a1 1 0 0 1 .86.5 5.17 5.17 0 0 0 1.83 1.83 1 1 0 0 1 .5.86v8.48a1 1 0 0 1-1 1zM11.63 28A13.08 13.08 0 0 0 20 36.37v-6.63A6.85 6.85 0 0 1 18.26 28zm26-6h-8.44a1 1 0 0 1-.86-.5 5.17 5.17 0 0 0-1.83-1.83 1 1 0 0 1-.5-.86v-8.48a1 1 0 0 1 1.21-1 15 15 0 0 1 11.44 11.46 1 1 0 0 1-1 1.21zm-7.93-2h6.63A13.08 13.08 0 0 0 28 11.63v6.63A6.85 6.85 0 0 1 29.74 20zm-10.89 2h-8.48a1 1 0 0 1-1-1.21A15 15 0 0 1 20.79 9.35a1 1 0 0 1 1.21 1v8.48a1 1 0 0 1-.5.86 5.17 5.17 0 0 0-1.83 1.83 1 1 0 0 1-.86.48zm-7.18-2h6.63A6.85 6.85 0 0 1 20 18.26v-6.63A13.08 13.08 0 0 0 11.63 20z"/>
	</g>
</g>
</svg>