<svg class="svg-icon" style="width: 1em; height: 1em;vertical-align: middle;fill: currentColor;overflow: hidden;" viewBox="0 0 1024 1024" version="1.1" xmlns="http://www.w3.org/2000/svg"><path d="M1,0.469 C1,0.402,0.988,0.338,0.957,0.278 C0.926,0.218,0.884,0.166,0.833,0.123 C0.783,0.081,0.727,0.05,0.665,0.031 C0.603,0.011,0.539,0.003,0.475,0.008 C0.408,0.013,0.344,0.032,0.284,0.062 C0.224,0.093,0.172,0.135,0.129,0.186 C0.087,0.236,0.056,0.293,0.037,0.354 C0.017,0.416,0.009,0.48,0.014,0.545 C0.019,0.612,0.037,0.676,0.068,0.736 C0.099,0.796,0.141,0.848,0.192,0.891 C0.242,0.932,0.299,0.963,0.36,0.983 C0.422,1,0.486,1,0.551,1 C0.617,1,0.682,0.982,0.742,0.951 C0.802,0.92,0.854,0.878,0.897,0.827 C0.938,0.777,0.969,0.721,0.989,0.659 C1,0.597,1,0.533,1,0.469 M0.557,0.119 C0.562,0.098,0.593,0.076,0.598,0.078 C0.612,0.081,0.61,0.079,0.623,0.087 C0.641,0.098,0.648,0.114,0.657,0.117 C0.677,0.125,0.692,0.116,0.699,0.118 C0.711,0.121,0.715,0.128,0.725,0.142 C0.732,0.152,0.736,0.157,0.744,0.164 C0.753,0.172,0.762,0.176,0.774,0.177 C0.797,0.18,0.808,0.213,0.808,0.221 C0.808,0.229,0.826,0.244,0.834,0.248 C0.837,0.25,0.878,0.255,0.87,0.295 C0.867,0.305,0.861,0.328,0.829,0.343 C0.829,0.343,0.616,0.413,0.602,0.422 L0.554,0.381 C0.548,0.29,0.541,0.19,0.557,0.119 M0.474,0.467 H0.539 V0.53 H0.474 V0.467 M0.142,0.28 C0.154,0.255,0.158,0.259,0.169,0.252 C0.173,0.249,0.18,0.248,0.189,0.243 C0.213,0.231,0.206,0.214,0.21,0.202 C0.212,0.195,0.22,0.186,0.238,0.18 C0.245,0.178,0.26,0.174,0.266,0.169 C0.272,0.165,0.286,0.159,0.292,0.143 C0.292,0.143,0.295,0.135,0.31,0.128 C0.324,0.121,0.335,0.122,0.345,0.124 C0.345,0.124,0.357,0.124,0.367,0.118 C0.377,0.112,0.38,0.103,0.39,0.095 C0.392,0.093,0.408,0.073,0.435,0.091 C0.462,0.105,0.466,0.14,0.467,0.142 C0.467,0.142,0.47,0.381,0.47,0.382 L0.417,0.415 C0.417,0.415,0.303,0.387,0.231,0.36 C0.205,0.35,0.185,0.341,0.179,0.338 C0.155,0.331,0.139,0.287,0.142,0.28 M0.199,0.789 C0.197,0.788,0.18,0.767,0.18,0.753 C0.18,0.741,0.178,0.708,0.145,0.7 C0.138,0.698,0.135,0.681,0.134,0.673 C0.133,0.66,0.137,0.655,0.132,0.639 C0.125,0.614,0.119,0.608,0.115,0.605 C0.11,0.599,0.098,0.581,0.114,0.549 C0.115,0.547,0.122,0.535,0.112,0.514 C0.103,0.497,0.095,0.495,0.096,0.471 C0.103,0.449,0.127,0.441,0.13,0.44 C0.16,0.428,0.206,0.448,0.186,0.443 C0.184,0.442,0.314,0.483,0.314,0.483 C0.323,0.484,0.39,0.506,0.399,0.509 L0.414,0.57 C0.414,0.57,0.37,0.64,0.359,0.653 C0.349,0.667,0.299,0.739,0.287,0.751 C0.264,0.774,0.248,0.799,0.199,0.789 M0.721,0.855 C0.72,0.861,0.717,0.877,0.713,0.879 C0.688,0.893,0.666,0.886,0.666,0.886 C0.666,0.886,0.648,0.879,0.63,0.89 C0.618,0.898,0.614,0.907,0.614,0.907 C0.614,0.907,0.599,0.916,0.571,0.908 C0.55,0.901,0.519,0.904,0.513,0.912 C0.504,0.923,0.466,0.908,0.46,0.899 C0.46,0.899,0.442,0.885,0.409,0.898 C0.398,0.902,0.373,0.901,0.366,0.88 C0.365,0.878,0.355,0.863,0.359,0.839 C0.363,0.818,0.378,0.799,0.378,0.799 L0.493,0.614 L0.556,0.615 C0.556,0.615,0.64,0.706,0.664,0.739 C0.676,0.755,0.704,0.792,0.713,0.808 C0.723,0.828,0.724,0.841,0.721,0.855 M0.931,0.565 C0.931,0.565,0.912,0.603,0.921,0.619 C0.927,0.629,0.909,0.664,0.895,0.668 C0.888,0.67,0.88,0.691,0.88,0.691 L0.88,0.725 C0.88,0.725,0.877,0.748,0.851,0.753 C0.814,0.761,0.79,0.734,0.79,0.734 L0.629,0.558 L0.647,0.498 C0.647,0.498,0.833,0.4,0.891,0.395 C0.891,0.395,0.919,0.395,0.942,0.417 C0.953,0.427,0.938,0.465,0.938,0.465 C0.938,0.465,0.919,0.487,0.943,0.521 C0.952,0.533,0.931,0.565,0.931,0.565"  /></svg>