<svg version="1.2" xmlns="http://www.w3.org/2000/svg" viewBox="0 0 542 1085" width="542" height="1085">
	<title>3126460-svg</title>
	<style>
		.s0 { fill: #000000 } 
	</style>
	<g>
		<path class="s0" d="m136.1 147.8l-135.4 147.7 30.4 0.7c36.7 0.9 510.8 3.2 511.5 2.5 0.3-0.2-16.1-18.6-36.3-40.8-20.2-22.2-80.1-88.1-133.2-146.4-53-58.3-97.6-107.2-99-108.7l-2.6-2.8z"/>
		<path class="s0" d="m90 647v341h178 178v-217-217l-39.3-0.2-39.4-0.3 39.4-37 39.3-37v-86.8-86.7h-178-178z"/>
		<path class="s0" d="m157 1040.5v44.5h112.5 112.5v-44.5-44.5h-112.5-112.5z"/>
	</g>
</svg>